<svg width="9" height="10" viewBox="0 0 9 10" fill="none" xmlns="http://www.w3.org/2000/svg">
<path fill-rule="evenodd" clip-rule="evenodd" d="M5.31527 5.39148L8.77669 1.90449C8.9859 1.69358 8.9859 1.35255 8.77669 1.143C8.56748 0.932083 8.22922 0.932083 8.02137 1.143L4.55859 4.62861L1.09582 1.14163C0.88661 0.930714 0.548347 0.930714 0.340499 1.14163C0.131292 1.35255 0.131292 1.69358 0.340499 1.90313L3.80192 5.39011L0.340499 8.87846C0.131292 9.08938 0.131292 9.43041 0.340499 9.63996C0.445102 9.74541 0.582309 9.79746 0.718157 9.79746C0.855364 9.79746 0.991213 9.74541 1.09582 9.63996L4.55859 6.15297L8.02137 9.64132C8.12597 9.74678 8.26182 9.79883 8.39903 9.79883C8.53624 9.79883 8.67209 9.74678 8.77669 9.64132C8.9859 9.43041 8.9859 9.08938 8.77669 8.87983L5.31527 5.39148Z" fill="#3699FF"/>
</svg>
