<svg width="21" height="20" viewBox="0 0 21 20" fill="none" xmlns="http://www.w3.org/2000/svg">
<g clip-path="url(#clip0)">
<path d="M9.45319 3.21659L2.32327 14.9999C2.17627 15.2519 2.09849 15.5377 2.09766 15.8287C2.09684 16.1197 2.173 16.4059 2.31858 16.6587C2.46415 16.9115 2.67406 17.1222 2.92743 17.2698C3.18079 17.4174 3.46877 17.4967 3.76272 17.4999H18.0226C18.3165 17.4967 18.6045 17.4174 18.8579 17.2698C19.1112 17.1222 19.3211 16.9115 19.4667 16.6587C19.6123 16.4059 19.6884 16.1197 19.6876 15.8287C19.6868 15.5377 19.609 15.2519 19.462 14.9999L12.3321 3.21659C12.182 2.97168 11.9707 2.76919 11.7186 2.62866C11.4665 2.48813 11.182 2.41431 10.8926 2.41431C10.6033 2.41431 10.3188 2.48813 10.0667 2.62866C9.81455 2.76919 9.60325 2.97168 9.45319 3.21659V3.21659Z" stroke="#FF4343" stroke-width="2" stroke-linecap="round" stroke-linejoin="round"/>
<path d="M10.8945 7.5V10.8333" stroke="#FF4343" stroke-width="2" stroke-linecap="round" stroke-linejoin="round"/>
<path d="M10.8945 13.3333V13.7499" stroke="#FF4343" stroke-width="2" stroke-linecap="round" stroke-linejoin="round"/>
</g>
<defs>
<clipPath id="clip0">
<rect width="20.2028" height="20" fill="white" transform="translate(0.792969)"/>
</clipPath>
</defs>
</svg>
