<?xml version="1.0" encoding="utf-8"?>
<svg version="1.1" id="Layer_1" xmlns="http://www.w3.org/2000/svg" xmlns:xlink="http://www.w3.org/1999/xlink" x="0px" y="0px" viewBox="0 0 70.62 122.88" style="enable-background:new 0 0 70.62 122.88" xml:space="preserve"><style type="text/css">.st0{fill-rule:evenodd;clip-rule:evenodd;}</style><g><path class="st0" d="M13.56,0h43.51c3.73,0,7.15,1.53,9.59,3.97c2.48,2.48,3.97,5.86,3.97,9.59v95.76c0,3.73-1.53,7.15-3.97,9.59 c-2.48,2.48-5.86,3.97-9.59,3.97H13.56c-3.73,0-7.15-1.53-9.59-3.97C1.49,116.43,0,113.06,0,109.32V13.56 c0-3.73,1.53-7.15,3.97-9.59C6.45,1.49,9.82,0,13.56,0L13.56,0z M37.62,37.38l-3.58,18.21l-3.63-5.47 c-7.82,3.14-12.21,8.32-12.87,16.29c-6.43-11.23-2.52-21.31,5.62-27.21l-3.71-5.58L37.62,37.38L37.62,37.38L37.62,37.38 L37.62,37.38L37.62,37.38L37.62,37.38z M33,80.16l3.58-18.21l3.63,5.47c7.82-3.14,12.21-8.32,12.87-16.29 c6.43,11.24,2.52,21.31-5.62,27.21l3.71,5.58L33,80.16L33,80.16L33,80.16L33,80.16L33,80.16L33,80.16z M35.29,106.22 c3.07,0,5.58,2.48,5.58,5.58c0,3.07-2.48,5.58-5.58,5.58c-3.07,0-5.58-2.48-5.58-5.58C29.71,108.73,32.19,106.22,35.29,106.22 L35.29,106.22z M3.85,103.2h62.88V14.87H3.85V103.2L3.85,103.2z" fill="#FFFFFF"/></g></svg>
