<svg width="73" height="72" viewBox="0 0 73 72" fill="none" xmlns="http://www.w3.org/2000/svg">
<g opacity="0.5">
<rect x="9.99121" y="9" width="55" height="9" rx="4.5" fill="#D0F5C7"/>
<rect x="7.99121" y="54" width="43" height="9" rx="4.5" fill="#D0F5C7"/>
<path d="M11.3027 31.5C11.3027 29.0147 13.3175 27 15.8027 27H61.4912C63.9765 27 65.9912 29.0147 65.9912 31.5C65.9912 33.9853 63.9765 36 61.4912 36H15.8027C13.3175 36 11.3027 33.9853 11.3027 31.5Z" fill="#D0F5C7"/>
<path fill-rule="evenodd" clip-rule="evenodd" d="M7.49121 36C5.00593 36 2.99121 38.0147 2.99121 40.5C2.99121 42.9853 5.00593 45 7.49121 45H53.4912C53.8349 45 54.1696 44.9615 54.4912 44.8885C52.4872 44.4338 50.9912 42.6416 50.9912 40.5C50.9912 38.3584 52.4872 36.5662 54.4912 36.1115C54.1696 36.0385 53.8349 36 53.4912 36H7.49121Z" fill="#D0F5C7"/>
<path fill-rule="evenodd" clip-rule="evenodd" d="M18.9914 22.5C18.9914 20.1375 17.1709 18.2003 14.8562 18.0146C14.9766 18.0049 15.0984 18 15.2213 18H52.7787C52.7835 18 52.7883 18 52.7932 18H47.4912C45.0059 18 42.9912 20.0147 42.9912 22.5C42.9912 24.9805 44.9981 26.9922 47.4767 27H15.2213C15.0985 27 14.9768 26.9951 14.8565 26.9854C17.171 26.7996 18.9914 24.8624 18.9914 22.5Z" fill="#D0F5C7"/>
<path fill-rule="evenodd" clip-rule="evenodd" d="M18.9912 53.9725C19.1554 53.9907 19.3222 54 19.4912 54H64.0322C66.5175 54 68.5322 51.9853 68.5322 49.5C68.5322 47.0147 66.5175 45 64.0322 45H19.4912C19.3222 45 19.1554 45.0093 18.9912 45.0275C21.2412 45.2762 22.9912 47.1837 22.9912 49.5C22.9912 51.8163 21.2412 53.7238 18.9912 53.9725Z" fill="#D0F5C7"/>
</g>
<circle cx="13.9912" cy="14" r="1.5" stroke="#8ADC76"/>
<circle cx="48.9912" cy="48" r="1.5" stroke="#8ADC76"/>
<path fill-rule="evenodd" clip-rule="evenodd" d="M58.9912 28C58.7151 28 58.4912 28.2239 58.4912 28.5V30.5H56.4912C56.2151 30.5 55.9912 30.7239 55.9912 31C55.9912 31.2761 56.2151 31.5 56.4912 31.5H58.4912V33.5C58.4912 33.7761 58.7151 34 58.9912 34C59.2674 34 59.4912 33.7761 59.4912 33.5V31.5H61.4912C61.7674 31.5 61.9912 31.2761 61.9912 31C61.9912 30.7239 61.7674 30.5 61.4912 30.5H59.4912V28.5C59.4912 28.2239 59.2674 28 58.9912 28Z" fill="#8ADC76"/>
<path fill-rule="evenodd" clip-rule="evenodd" d="M20.9769 48.9632C20.7816 48.7679 20.465 48.7679 20.2698 48.9632L18.9899 50.2431L17.7338 48.987C17.5385 48.7917 17.2219 48.7917 17.0267 48.987C16.8314 49.1823 16.8314 49.4989 17.0267 49.6941L18.2827 50.9502L16.9544 52.2786C16.7591 52.4738 16.7591 52.7904 16.9544 52.9857C17.1496 53.1809 17.4662 53.1809 17.6615 52.9857L18.9899 51.6573L20.3182 52.9856C20.5135 53.1809 20.83 53.1809 21.0253 52.9856C21.2206 52.7904 21.2206 52.4738 21.0253 52.2785L19.697 50.9502L20.9769 49.6703C21.1721 49.475 21.1721 49.1585 20.9769 48.9632Z" fill="#8ADC76"/>
<path fill-rule="evenodd" clip-rule="evenodd" d="M32.9769 19.9632C32.7816 19.7679 32.465 19.7679 32.2698 19.9632L30.9899 21.2431L29.7338 19.987C29.5385 19.7917 29.2219 19.7917 29.0267 19.987C28.8314 20.1823 28.8314 20.4989 29.0267 20.6941L30.2827 21.9502L28.9544 23.2786C28.7591 23.4738 28.7591 23.7904 28.9544 23.9857C29.1496 24.1809 29.4662 24.1809 29.6615 23.9857L30.9899 22.6573L32.3182 23.9856C32.5135 24.1809 32.83 24.1809 33.0253 23.9856C33.2206 23.7904 33.2206 23.4738 33.0253 23.2785L31.697 21.9502L32.9769 20.6703C33.1721 20.475 33.1721 20.1585 32.9769 19.9632Z" fill="#8ADC76"/>
<path fill-rule="evenodd" clip-rule="evenodd" d="M56.4558 18.5358C54.5032 16.5831 51.3373 16.5831 49.3847 18.5358L28.8301 39.0904L19.768 30.0283C17.8153 28.0757 14.6495 28.0757 12.6969 30.0283C10.7443 31.9809 10.7443 35.1467 12.6969 37.0994L25.1306 49.533C26.3756 50.7781 28.1139 51.2293 29.7165 50.8865C30.7702 50.7482 31.7883 50.2743 32.5978 49.4648L56.4558 25.6068C58.4084 23.6542 58.4084 20.4884 56.4558 18.5358Z" fill="#4DC033"/>
</svg>
