<svg width="18" height="18" viewBox="0 0 18 18" fill="none" xmlns="http://www.w3.org/2000/svg">
<path fill-rule="evenodd" clip-rule="evenodd" d="M10.0464 8.55981L16.8228 1.78866C17.2324 1.3791 17.2324 0.716875 16.8228 0.309967C16.4133 -0.0995998 15.751 -0.0995998 15.3441 0.309967L8.565 7.07846L1.78587 0.307308C1.3763 -0.102259 0.714082 -0.102259 0.307175 0.307308C-0.102392 0.716875 -0.102392 1.3791 0.307175 1.786L7.08364 8.55715L0.307175 15.331C-0.102392 15.7405 -0.102392 16.4028 0.307175 16.8097C0.511958 17.0144 0.780571 17.1155 1.04652 17.1155C1.31514 17.1155 1.58109 17.0144 1.78587 16.8097L8.565 10.0385L15.3441 16.8123C15.5489 17.0171 15.8149 17.1182 16.0835 17.1182C16.3521 17.1182 16.618 17.0171 16.8228 16.8123C17.2324 16.4028 17.2324 15.7405 16.8228 15.3336L10.0464 8.55981Z" fill="black" fill-opacity="0.65"/>
</svg>
