<svg width="24" height="24" viewBox="0 0 24 24" fill="none" xmlns="http://www.w3.org/2000/svg">
<circle cx="12" cy="12" r="11.5" stroke="#4674EB"/>
<path d="M17.3999 11.4H12.6V6.59996C12.6 6.26883 12.3312 6 11.9999 6C11.6688 6 11.4 6.26883 11.4 6.59996V11.4H6.59996C6.26883 11.4 6 11.6688 6 11.9999C6 12.3312 6.26883 12.6 6.59996 12.6H11.4V17.3999C11.4 17.7312 11.6688 18 11.9999 18C12.3312 18 12.6 17.7312 12.6 17.3999V12.6H17.3999C17.7312 12.6 18 12.3312 18 11.9999C18 11.6688 17.7312 11.4 17.3999 11.4Z" fill="#4674EB"/>
</svg>
